<svg width="54" height="47" viewBox="0 0 54 47" fill="none" xmlns="http://www.w3.org/2000/svg">
<path d="M48.5543 0H35.16C32.387 0 30.1371 2.24982 30.1371 5.02286V18.4171C30.1371 21.1902 32.387 23.44 35.16 23.44H43.5314V30.1371C43.5314 33.831 40.5282 36.8343 36.8343 36.8343H35.9971C34.6054 36.8343 33.4857 37.954 33.4857 39.3457V44.3686C33.4857 45.7603 34.6054 46.88 35.9971 46.88H36.8343C46.0847 46.88 53.5771 39.3876 53.5771 30.1371V5.02286C53.5771 2.24982 51.3273 0 48.5543 0ZM18.4171 0H5.02286C2.24982 0 0 2.24982 0 5.02286V18.4171C0 21.1902 2.24982 23.44 5.02286 23.44H13.3943V30.1371C13.3943 33.831 10.391 36.8343 6.69714 36.8343H5.86C4.46825 36.8343 3.34857 37.954 3.34857 39.3457V44.3686C3.34857 45.7603 4.46825 46.88 5.86 46.88H6.69714C15.9476 46.88 23.44 39.3876 23.44 30.1371V5.02286C23.44 2.24982 21.1902 0 18.4171 0Z" fill="#CEE2FF"/>
</svg>
