<svg width="54" height="47" viewBox="0 0 54 47" fill="none" xmlns="http://www.w3.org/2000/svg">
<path d="M48.5543 23.44H40.1829V16.7429C40.1829 13.049 43.1861 10.0457 46.88 10.0457H47.7171C49.1089 10.0457 50.2286 8.92604 50.2286 7.53429V2.51143C50.2286 1.11968 49.1089 0 47.7171 0H46.88C37.6296 0 30.1371 7.49243 30.1371 16.7429V41.8571C30.1371 44.6302 32.387 46.88 35.16 46.88H48.5543C51.3273 46.88 53.5771 44.6302 53.5771 41.8571V28.4629C53.5771 25.6898 51.3273 23.44 48.5543 23.44ZM18.4171 23.44H10.0457V16.7429C10.0457 13.049 13.049 10.0457 16.7429 10.0457H17.58C18.9718 10.0457 20.0914 8.92604 20.0914 7.53429V2.51143C20.0914 1.11968 18.9718 0 17.58 0H16.7429C7.49243 0 0 7.49243 0 16.7429V41.8571C0 44.6302 2.24982 46.88 5.02286 46.88H18.4171C21.1902 46.88 23.44 44.6302 23.44 41.8571V28.4629C23.44 25.6898 21.1902 23.44 18.4171 23.44Z" fill="#CEE2FF"/>
</svg>
